PathFileType	4	(X/Y/Z)	..\data\2014031\dynamic\2014031_C4_02.trc
DataRate	CameraRate	NumFrames	NumMarkers	Units	OrigDataRate	OrigDataStartFrame	OrigNumFrames
100.000000	100.000000	4	52	mm	100.000000	127	170
Frame#	Time	L_IAS			L_IPS			R_IPS			R_IAS			L_FTC			L_FLE			L_FME			L_FAX			L_TTC			L_FAL			L_TAM			L_FCC			L_FM1			L_FM2			L_FM5			R_FTC			R_FLE			R_FME			R_FAX			R_TTC			R_FAL			R_TAM			R_FCC			R_FM1			R_FM2			R_FM5			CV7			TV10			SXS			SJN			L_SIA			L_SRS			L_SAA			L_SAE			L_HLE			L_HME			L_UOA			L_RSP			L_UHE			L_HM2			L_HM5			R_SIA			R_SRS			R_SAA			R_SAE			R_HLE			R_HME			R_UOA			R_RSP			R_UHE			R_HM2			R_HM5			
		X1	Y1	Z1	X2	Y2	Z2	X3	Y3	Z3	X4	Y4	Z4	X5	Y5	Z5	X6	Y6	Z6	X7	Y7	Z7	X8	Y8	Z8	X9	Y9	Z9	X10	Y10	Z10	X11	Y11	Z11	X12	Y12	Z12	X13	Y13	Z13	X14	Y14	Z14	X15	Y15	Z15	X16	Y16	Z16	X17	Y17	Z17	X18	Y18	Z18	X19	Y19	Z19	X20	Y20	Z20	X21	Y21	Z21	X22	Y22	Z22	X23	Y23	Z23	X24	Y24	Z24	X25	Y25	Z25	X26	Y26	Z26	X27	Y27	Z27	X28	Y28	Z28	X29	Y29	Z29	X30	Y30	Z30	X31	Y31	Z31	X32	Y32	Z32	X33	Y33	Z33	X34	Y34	Z34	X35	Y35	Z35	X36	Y36	Z36	X37	Y37	Z37	X38	Y38	Z38	X39	Y39	Z39	X40	Y40	Z40	X41	Y41	Z41	X42	Y42	Z42	X43	Y43	Z43	X44	Y44	Z44	X45	Y45	Z45	X46	Y46	Z46	X47	Y47	Z47	X48	Y48	Z48	X49	Y49	Z49	X50	Y50	Z50	X51	Y51	Z51	X52	Y52	Z52	

128	1.27	1281.021728515625	957.5379638671877	-335.9635925292969	1080.510986328125	979.2293701171877	-295.7882690429688	1070.837524414063	971.705017089844	-191.1758728027344	1256.577514648438	949.3633422851565	-112.8954238891602	1196.535522460938	879.5267333984377	-423.2286071777345	1290.733642578125	471.0514221191407	-364.9831848144532	1276.493286132813	468.5861816406251	-235.2046966552735	1286.265258789063	409.8594665527345	-363.7927856445313	1342.042724609375	417.8950500488282	-298.9908142089844	1264.523803710938	66.59925842285158	-319.1342468261719	1287.666015625	86.82532501220705	-227.7920227050782	1220.129272460938	18.99393272399903	-273.2695617675782	1412.330688476563	22.79073333740235	-228.1913452148438	1421.185913085938	37.45877838134766	-286.9659729003907	1379.714233398438	23.33056068420411	-340.9757385253907	1166.780029296875	853.882507324219	-53.00283813476564	1186.48486328125	458.254852294922	-87.16595458984376	1215.564697265625	439.6372680664064	-212.8635864257813	1150.011474609375	417.5298461914064	-85.47470092773439	1206.269653320313	374.3386230468751	-128.7881011962891	875.4899902343752	221.7288360595704	-138.289794921875	925.8267822265627	196.1268157958985	-212.9245147705079	829.1982421875002	220.4870758056641	-203.3216552734376	914.1316528320315	57.1903648376465	-194.0735626220704	914.8401489257815	64.0714797973633	-133.166488647461	863.7067871093752	87.68672180175783	-102.5102081298828	1141.009155273438	1500.959716796875	-231.5332946777344	1058.822265625	1223.297973632813	-236.3590393066407	1286.5380859375	1217.871704101563	-234.6375427246094	1254.4150390625	1411.463623046875	-237.0513305664063	1056.156982421875	1250.697631835938	-342.3460388183594	1104.035400390625	1404.0830078125	-368.0527954101563	1150.87841796875	1394.029052734375	-428.4165344238282	1200.093872070313	1396.090698242188	-430.2785034179689	1137.53271484375	1063.576049804688	-493.3636779785157	1102.39697265625	1047.8212890625	-416.244110107422	1096.021240234375	1043.36083984375	-465.221893310547	1220.399780273438	811.604675292969	-445.071746826172	1185.59130859375	815.2346191406252	-519.4439086914064	1233.7685546875	723.0590209960939	-451.9689331054689	1166.219604492188	740.5227661132814	-524.4754028320314	1056.5673828125	1254.054321289063	-128.440673828125	1103.4111328125	1411.625854492188	-105.8262786865235	1162.64501953125	1409.10205078125	-47.41671371459962	1207.046997070313	1401.032104492188	-35.61630249023438	1197.81884765625	1066.064208984375	44.03219223022462	1159.62451171875	1044.127197265625	-32.6699447631836	1158.7998046875	1029.976196289063	10.14632034301758	1379.745239257813	888.0701293945315	-11.92211055755615	1343.326171875	856.734802246094	51.10180282592775	1443.85546875	819.995544433594	-14.59922695159912	1375.14892578125	777.5858154296877	46.89642715454102	
129	1.28	1292.0732421875	958.548034667969	-336.5470886230469	1091.241455078125	980.9842529296877	-296.6687316894532	1081.8603515625	972.9637451171877	-192.247055053711	1266.910766601563	950.6699829101565	-113.1674346923828	1206.847045898438	880.9582519531252	-423.965057373047	1294.260498046875	470.8873901367189	-365.4474182128907	1279.703857421875	468.5062255859376	-235.674301147461	1288.954833984375	409.6282043457032	-364.2124938964844	1344.977294921875	417.2193603515626	-299.4944152832032	1264.5361328125	66.60729980468751	-319.0240478515626	1287.6904296875	86.8256301879883	-227.7075195312501	1220.115112304688	18.95894622802735	-273.1904907226563	1412.37060546875	22.83601760864258	-228.1148223876954	1421.266479492188	37.43716049194337	-286.8781738281251	1379.698364257813	23.3541259765625	-341.0309448242188	1178.031005859375	855.0115966796877	-53.74301528930665	1209.451293945313	460.2390747070314	-87.04649353027345	1239.16259765625	442.1679077148439	-212.7307891845704	1173.678344726563	420.0653381347657	-85.45381927490236	1229.98388671875	376.8501586914063	-128.7083892822266	897.6196899414065	227.4310760498047	-138.7313537597657	948.1182861328127	200.6662292480469	-212.9169921875001	851.467224121094	225.5623168945313	-204.0266723632813	935.824157714844	61.80385589599611	-190.1041870117188	936.3586425781252	69.31032562255861	-129.2714538574219	885.1866455078127	95.30700683593751	-99.89273071289065	1152.66162109375	1502.475219726563	-232.2452697753907	1070.449096679688	1224.920166015625	-237.6324005126954	1297.8779296875	1219.235961914063	-234.9887390136719	1266.049072265625	1412.85986328125	-237.4842834472657	1068.204345703125	1252.404174804688	-344.0075988769532	1116.117797851563	1405.607788085938	-368.9763793945313	1163.18701171875	1395.627563476563	-429.2435913085939	1212.371704101563	1397.638793945313	-430.7167053222657	1153.491943359375	1064.57177734375	-494.721649169922	1117.5263671875	1048.36181640625	-417.8843078613282	1112.602905273438	1043.299194335938	-466.991180419922	1242.243286132813	814.7780761718752	-444.3610839843751	1207.24755859375	816.900085449219	-518.7340698242189	1258.785766601563	726.8427734375001	-450.9754028320314	1190.167724609375	741.5676879882814	-523.2114868164064	1067.5400390625	1255.611450195313	-129.9813079833985	1114.656005859375	1413.143920898438	-106.787109375	1173.650268554688	1410.475463867188	-48.17560958862306	1217.9853515625	1402.359619140625	-36.13232421875001	1206.32470703125	1067.192626953125	42.7289047241211	1167.983642578125	1045.936767578125	-34.06873321533204	1166.924438476563	1031.913940429688	8.698090553283693	1384.512817382813	885.1058349609377	-12.29075717926026	1347.6162109375	855.1736450195315	51.29441833496095	1446.54638671875	815.0457153320315	-15.15555000305176	1377.286376953125	775.1389770507815	47.41809844970704	
130	1.29	1302.954223632813	959.513610839844	-337.2011413574219	1101.867553710938	982.5949707031252	-297.4007568359376	1092.820068359375	974.203063964844	-193.1644592285157	1277.261840820313	952.0134887695315	-113.4577102661133	1216.884155273438	882.2338867187502	-424.6419982910157	1297.574951171875	470.7293395996095	-365.8987731933594	1282.8681640625	468.432098388672	-236.0961608886719	1291.458740234375	409.4168090820314	-364.6240234375001	1347.718994140625	416.5664672851564	-300.0010986328126	1264.521118164063	66.6038284301758	-318.9390258789063	1287.675415039063	86.77694702148439	-227.6438598632813	1220.042114257813	18.94925689697266	-273.1158447265626	1412.353637695313	22.77631378173828	-228.0480499267579	1421.2783203125	37.3332748413086	-286.7980041503907	1379.638061523438	23.27902030944825	-341.0511474609376	1189.28466796875	856.2445068359377	-54.39116668701173	1232.187866210938	462.590789794922	-87.09429168701173	1262.43505859375	445.229705810547	-212.7040557861329	1197.197387695313	422.7871398925782	-85.62085723876955	1253.721923828125	379.7272949218751	-128.8523559570313	920.6406250000002	231.7635803222657	-139.202392578125	971.2125244140627	204.3213653564454	-213.0489959716797	874.3978271484377	228.7062377929688	-204.5836029052735	960.037292480469	65.76785278320314	-186.265609741211	960.5618896484377	74.19557952880861	-125.5434722900391	909.2200927734377	101.7556228637696	-97.1751403808594	1164.281616210938	1503.922485351563	-232.8753967285157	1081.925170898438	1226.505126953125	-238.8468627929688	1308.952514648438	1220.458251953125	-235.2813262939454	1277.619506835938	1414.1435546875	-237.8432769775391	1080.157592773438	1254.082153320313	-345.6211853027344	1128.187255859375	1407.11279296875	-369.8840942382813	1175.538696289063	1397.17724609375	-430.0428466796876	1224.665649414063	1399.095336914063	-431.0728759765626	1169.489379882813	1065.544555664063	-496.1060180664064	1132.604858398438	1048.848876953125	-419.5980529785157	1129.270385742188	1043.185913085938	-468.8439025878907	1264.226806640625	818.1636962890627	-443.5589599609376	1229.118408203125	818.719665527344	-517.9394531250001	1284.178588867188	731.0140991210939	-449.9602050781251	1214.517700195313	742.8194580078126	-521.8911743164064	1078.364501953125	1257.103881835938	-131.5672149658203	1125.81591796875	1414.583129882813	-107.7027359008789	1184.5302734375	1411.752685546875	-48.85054779052736	1228.814453125	1403.531127929688	-36.55859756469727	1214.634887695313	1068.196899414063	41.50273132324219	1176.264038085938	1047.5947265625	-35.38040924072266	1174.900756835938	1033.723266601563	7.333185195922853	1388.989013671875	882.1162109375002	-12.59852695465088	1351.642333984375	853.604919433594	51.55435180664064	1448.886596679688	810.147888183594	-15.63293361663819	1379.169067382813	772.7570800781252	48.02103805541994	
131	1.3	1313.684204101563	960.4543457031252	-337.9533996582032	1112.445434570313	984.0618286132815	-297.9864807128907	1103.73828125	975.4304199218752	-193.9099121093751	1287.695434570313	953.4000244140627	-113.8237380981446	1226.6748046875	883.352233886719	-425.2613830566407	1300.729248046875	470.5780334472657	-366.3300781250001	1286.039306640625	468.3754882812501	-236.4686279296876	1293.832885742188	409.2297363281251	-365.0175170898438	1350.311401367188	415.9392395019532	-300.4911499023438	1264.5048828125	66.60279846191408	-318.8724670410157	1287.640991210938	86.6834182739258	-227.589584350586	1219.939086914063	18.97451972961426	-273.0462341308594	1412.303100585938	22.61687278747559	-227.9858398437501	1421.25830078125	37.15505981445313	-286.7272338867188	1379.555297851563	23.13219642639161	-341.0523376464844	1200.6064453125	857.581970214844	-54.94960403442384	1254.638061523438	465.2687377929689	-87.29286193847658	1285.34619140625	448.7429504394532	-212.7668914794922	1220.509155273438	425.655731201172	-85.94274902343751	1277.422973632813	382.9345397949219	-129.1777038574219	944.5062255859377	234.5997161865235	-139.6339721679688	995.0657958984377	206.9802856445313	-213.267807006836	897.9453735351565	229.9019775390626	-204.9246673583985	986.5605468750002	68.92458343505861	-182.7652130126953	987.2414550781252	78.48642730712892	-122.1943359375	935.6101074218752	106.7526779174805	-94.5138626098633	1175.854858398438	1505.289672851563	-233.4267883300782	1093.271484375	1228.029174804688	-239.986312866211	1319.802001953125	1221.552001953125	-235.5394744873047	1289.123413085938	1415.319580078125	-238.1403503417969	1092.021240234375	1255.7216796875	-347.1639404296876	1140.219116210938	1408.587524414063	-370.7667541503907	1187.897827148438	1398.678466796875	-430.8074951171876	1236.947387695313	1400.472778320313	-431.3547973632814	1185.519165039063	1066.4990234375	-497.5000000000001	1147.661743164063	1049.282958984375	-421.3585815429689	1145.969116210938	1043.043334960938	-470.7471618652345	1286.302368164063	821.7741699218752	-442.6608886718751	1251.178466796875	820.7224731445315	-517.0603637695314	1309.832397460938	735.5836181640626	-448.904022216797	1239.2275390625	744.3300170898439	-520.5264282226564	1089.084716796875	1258.524780273438	-133.1478729248047	1136.903076171875	1415.934448242188	-108.5682754516602	1195.308959960938	1412.933471679688	-49.44588470458986	1239.5517578125	1404.558837890625	-36.90536499023438	1222.737548828125	1069.090209960938	40.34017562866212	1184.450317382813	1049.1181640625	-36.6294288635254	1182.716552734375	1035.41455078125	6.02849054336548	1393.193481445313	879.1295166015627	-12.83227443695069	1355.39892578125	852.039978027344	51.8644256591797	1450.920043945313	805.3469238281252	-15.98911285400391	1380.806396484375	770.455993652344	48.69353485107423	
